<svg width="22" height="47" viewBox="0 0 22 47" fill="none" xmlns="http://www.w3.org/2000/svg">
<mask id="path-1-inside-1_2_13" fill="white">
<path fill-rule="evenodd" clip-rule="evenodd" d="M21.7585 11C21.7585 11.1676 21.7546 11.3343 21.7468 11.5H21.7585V36V36.5H21.7468C21.4859 42.0668 16.8899 46.5 11.2585 46.5C5.62717 46.5 1.03122 42.0668 0.77024 36.5H0.758545V36V11.5H0.77024C0.762472 11.3343 0.758545 11.1676 0.758545 11C0.758545 5.20101 5.45956 0.5 11.2585 0.5C17.0575 0.5 21.7585 5.20101 21.7585 11Z"/>
</mask>
<path d="M21.7468 11.5L20.7479 11.4532L20.6989 12.5H21.7468V11.5ZM21.7585 11.5H22.7585V10.5H21.7585V11.5ZM21.7585 36.5V37.5H22.7585V36.5H21.7585ZM21.7468 36.5V35.5H20.7926L20.7479 36.4532L21.7468 36.5ZM0.77024 36.5L1.76914 36.4532L1.72446 35.5H0.77024V36.5ZM0.758545 36.5H-0.241455V37.5H0.758545V36.5ZM0.758545 11.5V10.5H-0.241455V11.5H0.758545ZM0.77024 11.5V12.5H1.81822L1.76914 11.4532L0.77024 11.5ZM22.7458 11.5468C22.7543 11.3655 22.7585 11.1832 22.7585 11H20.7585C20.7585 11.152 20.755 11.3031 20.7479 11.4532L22.7458 11.5468ZM21.7585 10.5H21.7468V12.5H21.7585V10.5ZM22.7585 36V11.5H20.7585V36H22.7585ZM22.7585 36.5V36H20.7585V36.5H22.7585ZM21.7468 37.5H21.7585V35.5H21.7468V37.5ZM20.7479 36.4532C20.5119 41.489 16.3533 45.5 11.2585 45.5V47.5C17.4265 47.5 22.4599 42.6446 22.7458 36.5468L20.7479 36.4532ZM11.2585 45.5C6.16377 45.5 2.00523 41.489 1.76914 36.4532L-0.228663 36.5468C0.0572059 42.6446 5.09057 47.5 11.2585 47.5V45.5ZM0.758545 37.5H0.77024V35.5H0.758545V37.5ZM-0.241455 36V36.5H1.75854V36H-0.241455ZM-0.241455 11.5V36H1.75854V11.5H-0.241455ZM0.77024 10.5H0.758545V12.5H0.77024V10.5ZM-0.241455 11C-0.241455 11.1832 -0.237162 11.3655 -0.228663 11.5468L1.76914 11.4532C1.76211 11.3031 1.75854 11.152 1.75854 11H-0.241455ZM11.2585 -0.5C4.90727 -0.5 -0.241455 4.64873 -0.241455 11H1.75854C1.75854 5.75329 6.01184 1.5 11.2585 1.5V-0.5ZM22.7585 11C22.7585 4.64873 17.6098 -0.5 11.2585 -0.5V1.5C16.5052 1.5 20.7585 5.75329 20.7585 11H22.7585Z" fill="white" fill-opacity="0.5" mask="url(#path-1-inside-1_2_13)"/>
<path d="M11.405 37.8536C11.6003 38.0488 11.9168 38.0488 12.1121 37.8536L15.2941 34.6716C15.4893 34.4763 15.4893 34.1597 15.2941 33.9645C15.0988 33.7692 14.7822 33.7692 14.587 33.9645L11.7585 36.7929L8.93012 33.9645C8.73486 33.7692 8.41827 33.7692 8.22301 33.9645C8.02775 34.1597 8.02775 34.4763 8.22301 34.6716L11.405 37.8536ZM11.2585 10.5L11.2585 37.5H12.2585L12.2585 10.5H11.2585Z" fill="#FCFCFC"/>
</svg>
