<svg width="74" height="37" viewBox="0 0 74 37" fill="none" xmlns="http://www.w3.org/2000/svg">
<path d="M9.74209 19.2596C10.4442 17.8524 10.8877 16.5894 10.9247 15.7234C10.9616 14.8213 10.7029 14.3161 10.0008 14.3161C9.29862 14.3161 8.44865 15.2904 7.59867 16.9502C6.71174 18.574 5.97263 20.8113 5.49221 23.3733C5.01179 25.7548 4.82702 27.9199 5.01179 29.5798C5.15962 31.2036 5.67699 32.1779 6.56392 32.1779C7.30303 32.1779 8.00518 31.4201 8.44865 30.3376C8.89211 29.2189 9.03994 27.8838 8.74429 26.7291C8.70734 26.4404 9.22471 26.26 9.92687 26.26C10.666 26.26 11.5529 26.4765 12.292 26.9456C13.0681 27.4147 13.6594 28.1725 13.6594 29.2911C13.7702 31.0953 12.9942 33.0078 11.6268 34.4151C10.2595 35.8224 8.37474 36.8328 6.12046 36.8328C3.86618 36.8328 2.09232 35.6059 1.02061 33.3687C-0.0510979 31.1314 -0.309786 27.8838 0.392367 23.8063C1.24234 19.2236 2.94229 15.8677 4.97484 13.5944C7.00739 11.3211 9.40949 10.2025 11.5899 10.2025C13.2898 10.2025 14.5463 11.0324 15.2854 12.2593C16.0245 13.5222 16.2462 15.1099 15.8397 16.6255C15.4332 17.8884 14.6572 18.7184 13.6963 19.1514C12.7724 19.6205 11.7007 19.7648 10.9247 19.7287C10.1856 19.6566 9.63122 19.5122 9.74209 19.2596Z" fill="white"/>
<path d="M35.5003 35.3174C33.6525 35.0287 32.1743 34.0905 31.2135 32.611C30.2896 31.2037 29.8461 29.2913 30.2526 27.0901C30.5113 25.4302 31.0656 24.1673 31.7308 23.193C31.5461 23.193 31.2874 23.2291 31.1026 23.2291C30.2526 23.2291 29.4396 23.193 28.5896 23.1569C28.7374 24.1312 28.7744 25.1416 28.6635 26.3684C28.3679 29.1469 27.2592 31.4924 25.5593 33.1162C23.9702 34.74 21.8268 35.57 19.6464 35.2813C17.8356 34.9926 16.4313 34.0905 15.5813 32.611C14.6944 31.2037 14.3618 29.2552 14.6944 27.054C14.99 24.9611 16.0248 23.5539 17.2074 22.6157C18.3899 21.7135 19.6095 21.3166 20.3486 21.3166C21.6051 21.3166 22.3072 21.9661 22.2702 22.6878C22.1594 22.8322 21.5681 23.193 20.9768 23.8064C20.3486 24.4199 19.6095 25.2859 19.2769 26.5489C18.8703 27.9562 18.9443 29.3274 19.2769 30.2295C19.6095 31.2037 20.2377 31.745 21.0877 31.745C21.9377 31.745 22.7507 31.0955 23.3789 30.1573C24.0811 29.1469 24.5615 27.8479 24.6354 26.4406C24.7463 25.2137 24.6354 23.6621 24.3028 22.3992L24.2658 22.2187C22.8615 21.6414 21.7898 20.6671 21.3833 19.6928C20.9768 18.7185 21.3464 17.8525 22.6768 17.4556C23.8593 17.1308 25.4854 17.6721 26.7788 19.1516C26.9266 19.332 27.0745 19.5485 27.2223 19.7289C27.6657 19.8732 28.1092 19.9815 28.5157 20.0176C29.8092 20.2702 31.2874 20.4145 32.6547 20.4506C33.9482 20.4867 35.2047 20.5228 36.0546 20.5228H36.0916C37.385 20.5588 38.235 21.2805 38.1241 22.1105C37.9763 22.2548 37.2742 22.7239 36.572 23.4095C35.8329 24.1312 35.0568 25.1777 34.7612 26.5849C34.4286 28.1366 34.5395 29.4356 34.8721 30.3377C35.2786 31.312 35.9438 31.7811 36.8307 31.7811C37.7176 31.7811 38.6785 30.9512 39.4176 29.6882C40.1567 28.4252 40.6741 26.621 40.6741 24.6364C40.6741 22.3631 39.9349 20.9197 38.8263 19.9454C38.235 19.4041 37.4959 19.1876 36.7937 19.0794C36.0916 18.9711 35.5373 19.0072 35.4264 18.899C34.9829 18.6464 35.2416 17.8886 36.7568 16.9143C37.4589 16.4452 38.5676 16.1926 39.5654 16.1926C41.3023 16.1926 42.8544 16.9865 43.8522 18.3577C44.9239 19.6928 45.5152 21.5692 45.5152 23.8064C45.5152 26.0076 44.9239 28.0644 44.037 29.8686C43.0392 31.6728 41.8197 33.1523 40.2675 34.1266C38.7893 35.0648 37.1633 35.57 35.5003 35.3174Z" fill="white"/>
<path d="M57.0453 35.5338C54.7171 35.5338 52.7954 33.5492 50.652 29.183C50.615 29.6521 50.5042 30.1212 50.4672 30.4098C50.3194 31.2759 50.1346 31.8893 49.9498 32.7553C49.5064 34.5235 49.0999 35.2812 47.8064 35.2812C46.6608 35.2812 46.2543 34.7761 46.1065 33.2966C45.9956 31.7811 46.2173 29.3273 46.5499 25.2859C46.6978 23.0486 47.0304 20.7753 47.4738 18.5742C47.9173 16.4452 48.4716 14.4605 48.989 13.0532C49.5803 11.6459 50.1716 10.7438 50.7259 10.7438C51.502 10.7438 52.4628 11.0686 53.165 11.5016C53.9041 11.9707 54.4214 12.5841 54.3845 13.1615C54.3845 13.7028 53.6084 15.5431 52.9063 18.1772C52.278 20.1258 51.6498 22.4713 51.2802 24.8889C52.5367 24.2033 53.5715 23.4456 54.4584 22.5434C55.641 21.2805 56.3801 19.8732 56.4909 18.6102C56.5279 18.1411 57.0453 17.9968 57.7844 18.1051C58.5235 18.2494 59.3365 18.5742 60.0756 19.1515C60.7778 19.7289 61.2951 20.4145 61.2951 21.3166C61.2951 22.6517 60.5191 24.0951 59.1517 25.4302C58.3018 26.2601 57.304 26.9818 56.0475 27.6674C56.3062 28.1365 56.6018 28.9665 57.0453 29.6882C57.4887 30.4459 58.117 31.0233 58.8561 30.8789C59.2996 30.7707 59.8908 30.049 60.556 29.183C61.1843 28.3169 61.8495 27.1983 62.3669 26.2241C62.8473 25.3941 63.4386 25.3941 63.6973 25.8632C63.9929 26.4045 64.1038 27.4148 63.5494 28.6778C62.9951 29.9408 62.1451 31.6728 61.0734 33.044C59.9278 34.4152 58.6344 35.5338 57.0453 35.5338Z" fill="white"/>
<path d="M66.2102 31.1675C66.8015 31.1675 67.2819 30.7705 67.5406 30.2293C67.7993 29.688 67.8362 28.9663 67.6514 28.4251C67.2449 27.3064 66.2471 26.4404 65.3233 25.4661C64.3994 24.4919 63.5864 23.5537 63.5864 22.2907C63.5864 20.6308 64.8798 19.3318 66.6167 18.7184C68.3536 18.1049 70.46 18.1049 72.16 19.1153C73.1947 19.6926 73.4904 20.5587 73.4534 21.4247C73.4534 22.2907 73.0839 23.1207 72.6774 23.6619C72.2709 24.2393 71.8274 24.4919 71.7165 24.1671C71.5687 23.7702 71.2731 23.2289 70.8666 22.832C70.46 22.399 70.0166 22.0742 69.4992 22.0742C68.4275 22.0742 68.2058 22.8681 68.9818 23.5176C71.4578 25.5022 72.5295 27.2704 72.5295 29.7241C72.5295 31.0592 72.0491 32.5387 71.0513 33.6212C70.0166 34.7759 68.5014 35.5698 66.395 35.5698C64.8428 35.5698 63.6233 34.9203 62.7364 33.946C61.8494 32.9717 61.369 31.6727 61.2212 30.2654C61.0734 28.8942 61.3321 27.523 61.9603 26.4043C62.5146 25.394 63.2907 25.3218 63.9189 25.6105C64.5102 25.8992 64.9907 26.5487 64.8428 26.9095C64.4363 27.8838 64.3994 28.8942 64.6581 29.7241C64.9167 30.5901 65.4341 31.1675 66.2102 31.1675Z" fill="white"/>
<g clip-path="url(#clip0_2_32)">
<path d="M24.1771 17.3036C24.1771 17.3036 25.0814 12.6289 20.8684 8.17211C16.9021 3.9728 19.697 0.0310059 19.697 0.0310059C19.697 0.0310059 15.484 4.90378 18.5667 8.48904C21.5055 11.9158 24.2388 14.1938 24.1771 17.3036Z" fill="white"/>
<path d="M24.4638 20.374C24.4638 20.374 24.1966 17.4425 20.6824 15.2041C17.0654 12.9064 18.0519 9.6579 18.0519 9.6579C18.0519 9.6579 16.2845 13.7582 19.2233 15.739C21.8538 17.5217 23.9705 18.5319 24.4638 20.374Z" fill="white"/>
</g>
<defs>
<clipPath id="clip0_2_32">
<rect width="7.02845" height="20.3429" fill="white" transform="translate(17.4353 0.0309448)"/>
</clipPath>
</defs>
</svg>
